Coordinates
version=1
nRows=37
nColumns=38
inDegrees=no

Units are S.I. units (second, meters, Newtons, ...)
If the header above contains a line with 'inDegrees', this indicates whether rotational values are in degrees (yes) or radians (no).

endheader
time	pelvis_tilt	pelvis_list	pelvis_rotation	pelvis_tx	pelvis_ty	pelvis_tz	hip_flexion_r	hip_adduction_r	hip_rotation_r	knee_angle_r	ankle_angle_r	subtalar_angle_r	mtp_angle_r	hip_flexion_l	hip_adduction_l	hip_rotation_l	knee_angle_l	ankle_angle_l	subtalar_angle_l	mtp_angle_l	lumbar_extension	lumbar_bending	lumbar_rotation	arm_flex_r	arm_add_r	arm_rot_r	elbow_flex_r	pro_sup_r	wrist_flex_r	wrist_dev_r	arm_flex_l	arm_add_l	arm_rot_l	elbow_flex_l	pro_sup_l	wrist_flex_l	wrist_dev_l
5	3.06998	1.37338	-1.3615	0.669407	2.06771	0.950684	-0.258656	-0.0070047	-0.0909638	0.174073	-0.292059	0	0	-0.27174	-0.0301177	-0.0130957	0.151006	-0.266269	0	0	-0.199689	0.158665	-0.180365	0.410918	-0.297023	0.277059	1.55239	1.5708	0	0	0.30301	-0.539775	0.368837	1.48059	1.5708	0	0
5.01	3.06908	1.37273	-1.36095	0.669667	2.06876	0.950618	-0.260964	-0.00628328	-0.0915412	0.173027	-0.290233	0	0	-0.274743	-0.0307185	-0.0130207	0.148635	-0.265054	0	0	-0.19926	0.158977	-0.187014	0.409663	-0.297051	0.28815	1.56056	1.5708	0	0	0.264224	-0.52684	0.327269	1.50195	1.5708	0	0
5.02	3.06993	1.3727	-1.36206	0.669999	2.06975	0.950482	-0.262319	-0.00596872	-0.0919188	0.172646	-0.289257	0	0	-0.276514	-0.0310688	-0.0126694	0.147602	-0.264264	0	0	-0.198569	0.158563	-0.192434	0.405218	-0.297774	0.297511	1.57222	1.5708	0	0	0.231068	-0.520159	0.301178	1.52366	1.5708	0	0
5.03	3.07108	1.37278	-1.36348	0.670332	2.07073	0.950348	-0.263513	-0.00579489	-0.0921218	0.172265	-0.28814	0	0	-0.278187	-0.0312635	-0.012185	0.146503	-0.263563	0	0	-0.197921	0.157903	-0.198095	0.399261	-0.298856	0.306885	1.58543	1.5708	0	0	0.195167	-0.511847	0.273245	1.54521	1.5708	0	0
5.04	3.07247	1.37301	-1.36516	0.670666	2.07169	0.950215	-0.264469	-0.00567797	-0.0920957	0.172126	-0.287036	0	0	-0.279715	-0.0312583	-0.0116475	0.145195	-0.263185	0	0	-0.197222	0.156923	-0.203734	0.391697	-0.300781	0.316411	1.60063	1.5708	0	0	0.158841	-0.502279	0.247615	1.56748	1.5708	0	0
5.05	3.07434	1.37307	-1.36715	0.670991	2.07264	0.950095	-0.265718	-0.0055461	-0.0921636	0.171879	-0.286001	0	0	-0.281441	-0.0312612	-0.0106406	0.14394	-0.262846	0	0	-0.196803	0.155678	-0.209482	0.382669	-0.303409	0.326024	1.61792	1.5708	0	0	0.122997	-0.4905	0.225776	1.59088	1.5708	0	0
5.06	3.07688	1.37297	-1.36954	0.671326	2.07358	0.949994	-0.267373	-0.00538736	-0.0924245	0.17116	-0.285322	0	0	-0.283308	-0.031357	-0.00915991	0.142764	-0.262526	0	0	-0.19661	0.154078	-0.214818	0.372117	-0.30753	0.336031	1.6375	1.5708	0	0	0.0864664	-0.477642	0.206828	1.60953	1.5708	0	0
5.07	3.08916	1.36117	-1.38147	0.671695	2.074	0.950116	-0.282347	-0.00487111	-0.0951099	0.168629	-0.283617	0	0	-0.297576	-0.0320742	-0.0112032	0.142101	-0.260413	0	0	-0.223254	0.131671	-0.220059	0.357714	-0.316279	0.337664	1.6659	1.5708	0	0	0.0372299	-0.400451	0.159276	1.61708	1.5708	0	0
5.08	-3.13445	1.29279	-1.43722	0.673121	2.0713	0.951935	-0.361265	-0.00556363	-0.109011	0.157637	-0.28152	0	0	-0.371612	-0.0324096	-0.0212245	0.141894	-0.256131	0	0	-0.327769	0.0950111	-0.219462	0.339461	-0.304314	0.300381	1.71283	1.5708	0	0	-0.0191411	-0.0906324	-0.202332	1.63696	1.5708	0	0
5.09	3.00663	1.41562	-1.30215	0.671168	2.07853	0.948503	-0.224593	-0.00287403	-0.0815867	0.170629	-0.289311	0	0	-0.243856	-0.032189	0.00340433	0.134491	-0.266486	0	0	-0.1387	0.163368	-0.236854	0.317942	-0.310923	0.361458	1.69231	1.5708	0	0	0.00182248	-0.246334	-0.0420911	1.50863	1.5708	0	0
5.1	2.99751	1.42521	-1.29264	0.671465	2.07974	0.948056	-0.2147	-0.00360909	-0.0816234	0.173185	-0.285738	0	0	-0.234244	-0.0314731	0.00643851	0.135374	-0.266005	0	0	-0.122649	0.157588	-0.245158	0.319423	-0.341357	0.406427	1.69762	1.5708	0	0	0.000996667	-0.238238	-0.0369639	1.50935	1.5708	0	0
5.11	3.00074	1.42575	-1.29564	0.671694	2.08062	0.947905	-0.215946	-0.00369862	-0.0819185	0.172021	-0.283979	0	0	-0.235499	-0.0313557	0.00783324	0.133984	-0.265438	0	0	-0.122613	0.153624	-0.24946	0.304251	-0.349952	0.416967	1.712	1.5708	0	0	-0.0199742	-0.206432	-0.0522592	1.5087	1.5708	0	0
5.12	3.00804	1.42142	-1.30292	0.671818	2.08128	0.947841	-0.222482	-0.00323257	-0.0829104	0.170339	-0.282599	0	0	-0.242013	-0.0317127	0.00738343	0.132609	-0.264232	0	0	-0.131629	0.153865	-0.245433	0.264979	-0.336489	0.386418	1.73707	1.5708	0	0	-0.0345181	-0.168593	-0.0671056	1.49668	1.5708	0	0
5.13	3.01501	1.41865	-1.30972	0.671996	2.08194	0.947779	-0.227281	-0.00297566	-0.0833544	0.169069	-0.281268	0	0	-0.246952	-0.031762	0.00797527	0.1309	-0.263723	0	0	-0.136962	0.151184	-0.245296	0.236036	-0.331877	0.374732	1.7506	1.5708	0	0	-0.045173	-0.130067	-0.0878744	1.47586	1.5708	0	0
5.14	3.02168	1.42092	-1.31556	0.672343	2.08274	0.947681	-0.226666	-0.00362867	-0.0832054	0.168222	-0.280195	0	0	-0.246602	-0.0308708	0.011688	0.128604	-0.265003	0	0	-0.133132	0.141834	-0.254067	0.24669	-0.369977	0.429967	1.73731	1.5708	0	0	-0.0576389	-0.0939174	-0.115068	1.44942	1.5708	0	0
5.15	3.03174	1.41288	-1.32558	0.672422	2.08313	0.947689	-0.236658	-0.00304344	-0.0848159	0.167205	-0.278896	0	0	-0.256543	-0.0318897	0.00893883	0.128137	-0.263259	0	0	-0.145893	0.143616	-0.248571	0.20423	-0.348567	0.39295	1.74722	1.5708	0	0	-0.057015	-0.0662105	-0.121507	1.41459	1.5708	0	0
5.16	3.04732	1.40103	-1.34113	0.67257	2.08328	0.947866	-0.250818	-0.00259768	-0.0867194	0.165742	-0.277638	0	0	-0.270592	-0.0327412	0.00566015	0.127538	-0.260877	0	0	-0.168111	0.149378	-0.230631	0.190155	-0.287887	0.433357	1.76477	1.56241	0	0	-0.046242	-0.0429156	-0.114946	1.372	1.5708	0	0
5.17	3.05788	1.39333	-1.35157	0.672758	2.0836	0.947985	-0.260526	-0.00235289	-0.0876533	0.164299	-0.276645	0	0	-0.280392	-0.0331255	0.00443835	0.1264	-0.259833	0	0	-0.178881	0.147326	-0.229246	0.166881	-0.278771	0.425757	1.7565	1.54584	0	0	-0.0440102	-0.0172838	-0.129007	1.32652	1.5708	0	0
5.18	3.06783	1.38696	-1.3613	0.673013	2.08394	0.948087	-0.268583	-0.00231915	-0.0886298	0.163459	-0.275521	0	0	-0.288602	-0.0332334	0.00353242	0.125443	-0.25921	0	0	-0.187639	0.143983	-0.228862	0.153974	-0.282511	0.431342	1.74046	1.5339	0	0	-0.0405483	0.00469515	-0.146613	1.27623	1.5708	0	0
5.19	3.07823	1.38027	-1.37146	0.673257	2.08418	0.948211	-0.276773	-0.0025164	-0.0896448	0.162837	-0.274373	0	0	-0.29707	-0.0331899	0.00307819	0.124443	-0.25875	0	0	-0.197006	0.140467	-0.22855	0.144762	-0.286809	0.439335	1.7185	1.52318	0	0	-0.0355184	0.0236303	-0.168151	1.22326	1.5708	0	0
5.2	3.08842	1.37283	-1.38133	0.673514	2.08434	0.948345	-0.285668	-0.00264688	-0.0908477	0.162346	-0.273424	0	0	-0.306281	-0.0332004	0.00270216	0.123396	-0.258324	0	0	-0.207595	0.137183	-0.227887	0.136948	-0.288223	0.446581	1.69232	1.51277	0	0	-0.0288861	0.0409334	-0.189246	1.16848	1.5708	0	0
5.21	3.09881	1.36443	-1.3914	0.673832	2.08444	0.948509	-0.295518	-0.0027677	-0.0921965	0.162079	-0.272497	0	0	-0.316453	-0.0332396	0.00203473	0.1223	-0.257705	0	0	-0.219265	0.133795	-0.227165	0.131928	-0.289271	0.455673	1.66219	1.50282	0	0	-0.021628	0.0560578	-0.208026	1.11352	1.5708	0	0
5.22	3.1078	1.35414	-1.40013	0.6742	2.0844	0.948797	-0.30737	-0.00231118	-0.0934454	0.161364	-0.271588	0	0	-0.328419	-0.0337905	0.000657535	0.121316	-0.257149	0	0	-0.23339	0.131047	-0.226169	0.128582	-0.291089	0.463415	1.63021	1.49505	0	0	-0.0142796	0.0682204	-0.22517	1.06113	1.5708	0	0
5.23	3.11585	1.34686	-1.40777	0.67463	2.08449	0.948885	-0.316102	-0.00213784	-0.0947563	0.160328	-0.270436	0	0	-0.337042	-0.0340127	-0.000161484	0.120656	-0.256631	0	0	-0.243614	0.127687	-0.226388	0.125439	-0.293534	0.470818	1.59581	1.48775	0	0	-0.00751734	0.0772162	-0.243823	1.01108	1.5708	0	0
5.24	3.12082	1.33592	-1.41296	0.674985	2.08432	0.949263	-0.328427	-0.00100469	-0.095338	0.159043	-0.27005	0	0	-0.349125	-0.0352095	-0.00303805	0.120603	-0.256071	0	0	-0.258144	0.12607	-0.226105	0.124452	-0.295373	0.47788	1.56172	1.48067	0	0	0.000334273	0.0850571	-0.263919	0.962869	1.5708	0	0
5.25	3.12726	1.32648	-1.41948	0.675293	2.08425	0.949508	-0.339325	-0.000726261	-0.0967272	0.157985	-0.269692	0	0	-0.359634	-0.0356298	-0.00537092	0.120717	-0.255291	0	0	-0.271411	0.123914	-0.225686	0.1226	-0.296109	0.482667	1.52848	1.47421	0	0	0.00792278	0.0911901	-0.283225	0.916163	1.5708	0	0
5.26	3.13356	1.31744	-1.42565	0.675559	2.08421	0.949703	-0.349917	-0.000626772	-0.0985693	0.156759	-0.26933	0	0	-0.369712	-0.0358842	-0.00732337	0.120811	-0.254575	0	0	-0.284832	0.121874	-0.224847	0.12035	-0.296602	0.485281	1.49593	1.46819	0	0	0.0158178	0.0958404	-0.301964	0.871235	1.5708	0	0
5.27	3.13931	1.30705	-1.43118	0.675796	2.08407	0.949954	-0.362269	-0.00022574	-0.100388	0.154582	-0.269141	0	0	-0.381246	-0.0362949	-0.00973355	0.120632	-0.253829	0	0	-0.297538	0.120217	-0.227205	0.123022	-0.295935	0.492592	1.45747	1.4606	0	0	0.0237958	0.0990168	-0.324934	0.825079	1.5708	0	0
5.28	-3.13706	1.30717	-1.43694	0.676277	2.08443	0.950001	-0.363704	-0.000762786	-0.101042	0.152699	-0.269712	0	0	-0.381741	-0.0353692	-0.00682948	0.11986	-0.254792	0	0	-0.290547	0.10691	-0.248582	0.120855	-0.339567	0.469043	1.39349	1.5708	0	0	0.0222821	0.100894	-0.371678	0.781206	1.5708	0	0
5.29	-3.13072	1.29808	-1.44299	0.676681	2.08432	0.950213	-0.374578	-0.000553049	-0.102713	0.150894	-0.269194	0	0	-0.391682	-0.0355853	-0.00842422	0.120201	-0.253862	0	0	-0.302242	0.104208	-0.24998	0.123813	-0.335574	0.479273	1.35359	1.5708	0	0	0.0311535	0.100256	-0.392888	0.736447	1.5708	0	0
5.3	-3.12479	1.28906	-1.44836	0.676992	2.08417	0.950415	-0.385502	-0.000384043	-0.104519	0.148706	-0.269218	0	0	-0.401549	-0.0357826	-0.00957389	0.120259	-0.253114	0	0	-0.314204	0.101554	-0.252306	0.12723	-0.331105	0.489575	1.31422	1.5708	0	0	0.0394783	0.0990379	-0.415716	0.693877	1.5708	0	0
5.31	-3.11819	1.28219	-1.45397	0.677259	2.08412	0.950464	-0.39427	-0.00070651	-0.106942	0.146476	-0.269097	0	0	-0.409016	-0.0355537	-0.00997813	0.120533	-0.252529	0	0	-0.323856	0.0981478	-0.255293	0.129742	-0.32644	0.498994	1.27649	1.5708	0	0	0.0464528	0.0967994	-0.438668	0.653476	1.5708	0	0
5.32	-3.11215	1.27308	-1.45942	0.677478	2.08387	0.950661	-0.405039	-0.000964546	-0.108972	0.144598	-0.269021	0	0	-0.418857	-0.0353264	-0.0107043	0.120638	-0.252022	0	0	-0.336146	0.0952133	-0.258016	0.133299	-0.322266	0.508463	1.24042	1.5708	0	0	0.052856	0.0940291	-0.461677	0.616509	1.5708	0	0
5.33	-3.10424	1.26289	-1.46726	0.677727	2.08351	0.950898	-0.416708	-0.00214258	-0.110897	0.143084	-0.268695	0	0	-0.430021	-0.0341742	-0.0117378	0.120378	-0.251708	0	0	-0.349724	0.0915796	-0.260522	0.137146	-0.317954	0.517461	1.20564	1.5708	0	0	0.0584693	0.0905705	-0.484363	0.582485	1.5708	0	0
5.34	-3.09672	1.25303	-1.47454	0.678027	2.08316	0.951136	-0.427973	-0.00322124	-0.112769	0.141785	-0.268298	0	0	-0.440918	-0.0331469	-0.0122781	0.119786	-0.251805	0	0	-0.362924	0.0879473	-0.263179	0.140928	-0.312943	0.52579	1.17109	1.5708	0	0	0.0634994	0.086895	-0.507579	0.550816	1.5708	0	0
5.35	-3.09651	1.24443	-1.47402	0.676789	2.08303	0.951122	-0.437489	-0.00459417	-0.11959	0.141936	-0.268636	0	0	-0.451065	-0.0324372	-0.0136512	0.118814	-0.25066	0	0	-0.373588	0.0897196	-0.26643	0.144794	-0.312904	0.534488	1.13958	1.5708	0	0	0.0678031	0.0863866	-0.529827	0.520286	1.5708	0	0
5.36	-3.08959	1.23524	-1.48141	0.677153	2.08268	0.951316	-0.447526	-0.00618194	-0.120251	0.141441	-0.26818	0	0	-0.461636	-0.0311481	-0.014474	0.117442	-0.25099	0	0	-0.385934	0.0859799	-0.26859	0.149697	-0.307172	0.543254	1.10296	1.5708	0	0	0.0697365	0.0820555	-0.550209	0.49722	1.5708	0	0
